<svg width="24" height="24" viewBox="0 0 24 24" fill="none" xmlns="http://www.w3.org/2000/svg">
<g clip-path="url(#clip0_4693_57356)">
<path fill-rule="evenodd" clip-rule="evenodd" d="M20.5372 0.51465C20.1497 0.514525 19.766 0.590768 19.4081 0.739019C19.0501 0.88727 18.7248 1.10462 18.4509 1.37865L14.2715 5.60608L5.46176 1.53294C5.1007 1.35948 4.70809 1.2614 4.30787 1.2447C3.90765 1.228 3.50823 1.29302 3.13397 1.43579C2.75972 1.57857 2.41847 1.7961 2.13107 2.07511C1.84367 2.35413 1.61613 2.68878 1.46233 3.05865C1.12325 3.7113 1.04347 4.46803 1.239 5.17705C1.43454 5.88606 1.89093 6.49493 2.51662 6.88151L9.01376 10.8827L6.98919 12.9089H3.18691C2.45503 12.9694 1.77295 13.3039 1.2771 13.8456C0.78124 14.3873 0.508169 15.0962 0.512502 15.8305C0.516834 16.5649 0.798251 17.2705 1.30046 17.8063C1.80267 18.3421 2.48865 18.6686 3.22119 18.7204H5.27833V20.7775L5.28005 20.8118C5.34048 21.5437 5.675 22.2257 6.21668 22.7216C6.75837 23.2175 7.46729 23.4905 8.20164 23.4862C8.936 23.4819 9.64164 23.2004 10.1774 22.6982C10.7132 22.196 11.0397 21.51 11.0915 20.7775V17.0129L13.1178 14.9849L17.1206 21.4821C17.5072 22.1073 18.1157 22.5651 18.8243 22.7606C19.533 22.9562 20.2893 22.8767 20.9418 22.5381C21.3019 22.3856 21.6278 22.1626 21.9004 21.8823C22.173 21.6019 22.3868 21.2699 22.5291 20.9057C22.6714 20.5414 22.7395 20.1524 22.7292 19.7615C22.7189 19.3706 22.6305 18.9857 22.4692 18.6295L18.3943 9.72894L22.62 5.55122H22.6218C23.0352 5.13904 23.3169 4.61343 23.4313 4.04097C23.5457 3.46852 23.4875 2.875 23.2643 2.33561C23.041 1.79622 22.6627 1.33523 22.1772 1.01106C21.6917 0.686888 21.121 0.514122 20.5372 0.51465Z" fill="white"/>
</g>
<defs>
<clipPath id="clip0_4693_57356">
<rect width="24" height="24" fill="white"/>
</clipPath>
</defs>
</svg>
