<svg width="44" height="36" viewBox="0 0 44 36" fill="none" xmlns="http://www.w3.org/2000/svg">
<path d="M43 34.6V1H1V34.6H43Z" stroke="#7A3B54" stroke-width="2" stroke-linecap="square"/>
<path d="M9.3999 13.6002H14.6499M9.3999 22.0002H14.6499M23.0499 25.1502C23.0499 23.4793 23.7136 21.8769 24.8951 20.6954C26.0766 19.5139 27.679 18.8502 29.3499 18.8502M29.3499 18.8502C31.0208 18.8502 32.6232 19.5139 33.8047 20.6954C34.9862 21.8769 35.6499 23.4793 35.6499 25.1502M29.3499 18.8502C30.4638 18.8502 31.5321 18.4077 32.3197 17.62C33.1074 16.8324 33.5499 15.7641 33.5499 14.6502C33.5499 13.5363 33.1074 12.468 32.3197 11.6803C31.5321 10.8927 30.4638 10.4502 29.3499 10.4502C28.236 10.4502 27.1677 10.8927 26.3801 11.6803C25.5924 12.468 25.1499 13.5363 25.1499 14.6502C25.1499 15.7641 25.5924 16.8324 26.3801 17.62C27.1677 18.4077 28.236 18.8502 29.3499 18.8502Z" stroke="#7A3B54" stroke-width="2" stroke-linecap="square"/>
</svg>
