<svg width="28" height="32" viewBox="0 0 28 32" fill="none" xmlns="http://www.w3.org/2000/svg">
<path d="M28 24.8889V7.11111C28 3.25689 21.5897 0 14 0C6.41025 0 0 3.25689 0 7.11111V24.8889C0 28.7431 6.41025 32 14 32C21.5897 32 28 28.7431 28 24.8889ZM14 3.55556C20.4592 3.55556 24.3793 6.23467 24.5 7.10044C24.3793 7.98756 20.4592 10.6667 14 10.6667C7.54075 10.6667 3.62075 7.98756 3.5 7.12178C3.62075 6.23467 7.54075 3.55556 14 3.55556ZM3.5 11.7458C6.08825 13.2516 9.86475 14.2222 14 14.2222C18.1352 14.2222 21.9118 13.2516 24.5 11.7458V15.9893C24.3793 16.8764 20.4592 19.5556 14 19.5556C7.54075 19.5556 3.62075 16.8764 3.5 16V11.7458ZM3.5 24.8889V20.6347C6.08825 22.1404 9.86475 23.1111 14 23.1111C18.1352 23.1111 21.9118 22.1404 24.5 20.6347V24.8782C24.3793 25.7653 20.4592 28.4444 14 28.4444C7.54075 28.4444 3.62075 25.7653 3.5 24.8889Z" fill="#B87C2E"/>
</svg>
