<svg width="24" height="24" viewBox="0 0 24 24" fill="none" xmlns="http://www.w3.org/2000/svg">
<path fill-rule="evenodd" clip-rule="evenodd" d="M14.652 2.74909C14.3037 2.40077 13.8903 2.12445 13.4353 1.93594C12.9802 1.74742 12.4925 1.65039 12 1.65039C11.5074 1.65039 11.0197 1.74742 10.5647 1.93594C10.1096 2.12445 9.69621 2.40077 9.34798 2.74909L2.54548 9.55159C2.19715 9.89982 1.92084 10.3133 1.73232 10.7683C1.54381 11.2233 1.44678 11.711 1.44678 12.2036C1.44678 12.6961 1.54381 13.1838 1.73232 13.6389C1.92084 14.0939 2.19715 14.5074 2.54548 14.8556L9.34798 21.6581C9.69621 22.0064 10.1096 22.2827 10.5647 22.4712C11.0197 22.6598 11.5074 22.7568 12 22.7568C12.4925 22.7568 12.9802 22.6598 13.4353 22.4712C13.8903 22.2827 14.3037 22.0064 14.652 21.6581L21.4545 14.8556C21.8028 14.5074 22.0791 14.0939 22.2676 13.6389C22.4561 13.1838 22.5532 12.6961 22.5532 12.2036C22.5532 11.711 22.4561 11.2233 22.2676 10.7683C22.0791 10.3133 21.8028 9.89982 21.4545 9.55159L14.652 2.74909ZM11.25 7.49959V11.2496H7.49998V12.7496H11.25V16.4996H12.75V12.7496H16.5V11.2496H12.75V7.49959H11.25Z" fill="white"/>
</svg>
