<svg width="42" height="42" viewBox="0 0 42 42" fill="none" xmlns="http://www.w3.org/2000/svg">
<path fill-rule="evenodd" clip-rule="evenodd" d="M7 0C6.67528 1.08967e-05 6.35696 0.0903714 6.08066 0.260972C5.80436 0.431573 5.58098 0.675686 5.4355 0.966L0.1855 11.466C0.0635345 11.7093 1.82278e-05 11.9778 0 12.25V19.25C0 19.7141 0.184375 20.1592 0.512563 20.4874C0.840752 20.8156 1.28587 21 1.75 21H3.5V40.25C3.5 40.7141 3.68437 41.1592 4.01256 41.4874C4.34075 41.8156 4.78587 42 5.25 42H36.75C37.2141 42 37.6592 41.8156 37.9874 41.4874C38.3156 41.1592 38.5 40.7141 38.5 40.25V21H40.25C40.7141 21 41.1592 20.8156 41.4874 20.4874C41.8156 20.1592 42 19.7141 42 19.25V12.25C42 11.9778 41.9365 11.7093 41.8145 11.466L36.5645 0.966C36.419 0.675686 36.1956 0.431573 35.9193 0.260972C35.643 0.0903714 35.3247 1.08967e-05 35 0H7ZM38.5 12.663V17.5H31.5V14H28V17.5H22.75V14H19.25V17.5H14V14H10.5V17.5H3.5V12.663L8.0815 3.5H33.9185L38.5 12.663ZM15.75 28H19.25V24.5H15.75V28ZM22.75 28H26.25V24.5H22.75V28ZM19.25 33.25H15.75V29.75H19.25V33.25ZM22.75 33.25H26.25V29.75H22.75V33.25Z" fill="#2438EB"/>
</svg>
