<svg width="20" height="20" viewBox="0 0 20 20" fill="none" xmlns="http://www.w3.org/2000/svg">
<path d="M10.0001 18.3337C7.78994 18.3337 5.67033 17.4557 4.10752 15.8929C2.54472 14.3301 1.66675 12.2105 1.66675 10.0003C1.66675 7.79019 2.54472 5.67057 4.10752 4.10777C5.67033 2.54497 7.78994 1.66699 10.0001 1.66699C12.2102 1.66699 14.3298 2.45717 15.8926 3.86369C17.4554 5.27021 18.3334 7.17787 18.3334 9.16699C18.3334 10.2721 17.8944 11.3319 17.113 12.1133C16.3316 12.8947 15.2718 13.3337 14.1667 13.3337H12.2917C12.0209 13.3337 11.7554 13.4091 11.5251 13.5515C11.2947 13.6938 11.1085 13.8976 10.9874 14.1398C10.8663 14.382 10.815 14.6532 10.8393 14.923C10.8636 15.1927 10.9626 15.4503 11.1251 15.667L11.3751 16.0003C11.5376 16.217 11.6365 16.4746 11.6609 16.7444C11.6852 17.0141 11.6339 17.2853 11.5128 17.5275C11.3917 17.7697 11.2055 17.9735 10.9751 18.1159C10.7447 18.2582 10.4792 18.3337 10.2084 18.3337H10.0001Z" stroke="white" stroke-width="1.66667" stroke-linecap="round" stroke-linejoin="round"/>
<path d="M11.2499 5.83333C11.48 5.83333 11.6666 5.64679 11.6666 5.41667C11.6666 5.18655 11.48 5 11.2499 5C11.0198 5 10.8333 5.18655 10.8333 5.41667C10.8333 5.64679 11.0198 5.83333 11.2499 5.83333Z" fill="#94A3B8" stroke="#94A3B8" stroke-width="1.66667" stroke-linecap="round" stroke-linejoin="round"/>
<path d="M14.5834 9.16634C14.8135 9.16634 15.0001 8.97979 15.0001 8.74967C15.0001 8.51956 14.8135 8.33301 14.5834 8.33301C14.3533 8.33301 14.1667 8.51956 14.1667 8.74967C14.1667 8.97979 14.3533 9.16634 14.5834 9.16634Z" fill="#94A3B8" stroke="#94A3B8" stroke-width="1.66667" stroke-linecap="round" stroke-linejoin="round"/>
<path d="M5.41667 10.8333C5.64679 10.8333 5.83333 10.6468 5.83333 10.4167C5.83333 10.1865 5.64679 10 5.41667 10C5.18655 10 5 10.1865 5 10.4167C5 10.6468 5.18655 10.8333 5.41667 10.8333Z" fill="#94A3B8" stroke="#94A3B8" stroke-width="1.66667" stroke-linecap="round" stroke-linejoin="round"/>
<path d="M7.08341 6.66634C7.31353 6.66634 7.50008 6.47979 7.50008 6.24967C7.50008 6.01956 7.31353 5.83301 7.08341 5.83301C6.8533 5.83301 6.66675 6.01956 6.66675 6.24967C6.66675 6.47979 6.8533 6.66634 7.08341 6.66634Z" fill="#94A3B8" stroke="#94A3B8" stroke-width="1.66667" stroke-linecap="round" stroke-linejoin="round"/>
</svg>
