<svg width="20" height="20" viewBox="0 0 20 20" fill="none" xmlns="http://www.w3.org/2000/svg">
<g opacity="0.12">
<path d="M13.3333 14.6667C13.3333 14.2 13.3333 13.9666 13.4242 13.7883C13.5041 13.6315 13.6315 13.5041 13.7883 13.4242C13.9666 13.3333 14.2 13.3333 14.6667 13.3333H16.1667C16.6334 13.3333 16.8667 13.3333 17.045 13.4242C17.2018 13.5041 17.3293 13.6315 17.4092 13.7883C17.5 13.9666 17.5 14.2 17.5 14.6667V16.1667C17.5 16.6334 17.5 16.8667 17.4092 17.045C17.3293 17.2018 17.2018 17.3293 17.045 17.4092C16.8667 17.5 16.6334 17.5 16.1667 17.5H14.6667C14.2 17.5 13.9666 17.5 13.7883 17.4092C13.6315 17.3293 13.5041 17.2018 13.4242 17.045C13.3333 16.8667 13.3333 16.6334 13.3333 16.1667V14.6667Z" fill="white"/>
<path d="M13.3333 3.83333C13.3333 3.36662 13.3333 3.13327 13.4242 2.95501C13.5041 2.79821 13.6315 2.67072 13.7883 2.59083C13.9666 2.5 14.2 2.5 14.6667 2.5H16.1667C16.6334 2.5 16.8667 2.5 17.045 2.59083C17.2018 2.67072 17.3293 2.79821 17.4092 2.95501C17.5 3.13327 17.5 3.36662 17.5 3.83333V5.33333C17.5 5.80004 17.5 6.0334 17.4092 6.21166C17.3293 6.36846 17.2018 6.49594 17.045 6.57584C16.8667 6.66667 16.6334 6.66667 16.1667 6.66667H14.6667C14.2 6.66667 13.9666 6.66667 13.7883 6.57584C13.6315 6.49594 13.5041 6.36846 13.4242 6.21166C13.3333 6.0334 13.3333 5.80004 13.3333 5.33333V3.83333Z" fill="white"/>
<path d="M2.5 3.83333C2.5 3.36662 2.5 3.13327 2.59083 2.95501C2.67072 2.79821 2.79821 2.67072 2.95501 2.59083C3.13327 2.5 3.36662 2.5 3.83333 2.5H5.33333C5.80004 2.5 6.0334 2.5 6.21166 2.59083C6.36846 2.67072 6.49594 2.79821 6.57584 2.95501C6.66667 3.13327 6.66667 3.36662 6.66667 3.83333V5.33333C6.66667 5.80004 6.66667 6.0334 6.57584 6.21166C6.49594 6.36846 6.36846 6.49594 6.21166 6.57584C6.0334 6.66667 5.80004 6.66667 5.33333 6.66667H3.83333C3.36662 6.66667 3.13327 6.66667 2.95501 6.57584C2.79821 6.49594 2.67072 6.36846 2.59083 6.21166C2.5 6.0334 2.5 5.80004 2.5 5.33333V3.83333Z" fill="white"/>
</g>
<path d="M5.83333 10.0003H10V14.167M2.50833 10.0003H2.5M6.675 14.167H6.66667M10.0083 17.5003H10M17.5083 10.0003H17.5M2.5 14.167H3.75M12.9167 10.0003H14.5833M2.5 17.5003H6.66667M10 1.66699V6.66699M14.6667 17.5003H16.1667C16.6334 17.5003 16.8667 17.5003 17.045 17.4095C17.2018 17.3296 17.3293 17.2021 17.4092 17.0453C17.5 16.8671 17.5 16.6337 17.5 16.167V14.667C17.5 14.2003 17.5 13.9669 17.4092 13.7887C17.3293 13.6319 17.2018 13.5044 17.045 13.4245C16.8667 13.3337 16.6334 13.3337 16.1667 13.3337H14.6667C14.2 13.3337 13.9666 13.3337 13.7883 13.4245C13.6315 13.5044 13.5041 13.6319 13.4242 13.7887C13.3333 13.9669 13.3333 14.2003 13.3333 14.667V16.167C13.3333 16.6337 13.3333 16.8671 13.4242 17.0453C13.5041 17.2021 13.6315 17.3296 13.7883 17.4095C13.9666 17.5003 14.2 17.5003 14.6667 17.5003ZM14.6667 6.66699H16.1667C16.6334 6.66699 16.8667 6.66699 17.045 6.57616C17.2018 6.49627 17.3293 6.36879 17.4092 6.21198C17.5 6.03372 17.5 5.80037 17.5 5.33366V3.83366C17.5 3.36695 17.5 3.13359 17.4092 2.95533C17.3293 2.79853 17.2018 2.67105 17.045 2.59115C16.8667 2.50033 16.6334 2.50033 16.1667 2.50033H14.6667C14.2 2.50033 13.9666 2.50033 13.7883 2.59115C13.6315 2.67105 13.5041 2.79853 13.4242 2.95533C13.3333 3.13359 13.3333 3.36695 13.3333 3.83366V5.33366C13.3333 5.80037 13.3333 6.03372 13.4242 6.21198C13.5041 6.36879 13.6315 6.49627 13.7883 6.57616C13.9666 6.66699 14.2 6.66699 14.6667 6.66699ZM3.83333 6.66699H5.33333C5.80004 6.66699 6.0334 6.66699 6.21166 6.57616C6.36846 6.49627 6.49594 6.36879 6.57584 6.21198C6.66667 6.03372 6.66667 5.80037 6.66667 5.33366V3.83366C6.66667 3.36695 6.66667 3.13359 6.57584 2.95533C6.49594 2.79853 6.36846 2.67105 6.21166 2.59115C6.0334 2.50033 5.80004 2.50033 5.33333 2.50033H3.83333C3.36662 2.50033 3.13327 2.50033 2.95501 2.59115C2.79821 2.67105 2.67072 2.79853 2.59083 2.95533C2.5 3.13359 2.5 3.36695 2.5 3.83366V5.33366C2.5 5.80037 2.5 6.03372 2.59083 6.21198C2.67072 6.36879 2.79821 6.49627 2.95501 6.57616C3.13327 6.66699 3.36662 6.66699 3.83333 6.66699Z" stroke="white" stroke-width="2" stroke-linecap="round" stroke-linejoin="round"/>
</svg>
