<svg width="2385" height="667" viewBox="0 0 2385 667" fill="none" xmlns="http://www.w3.org/2000/svg">
<path d="M670.671 278.328C670.671 208.464 644.664 141.697 597.423 90.2505C550.475 39.1393 486.733 7.49301 417.924 1.21398C409.631 0.418638 400.92 0 392.125 0H153.701L112.156 74.4693H392.125C504.616 74.4693 596.166 165.934 596.166 278.37C596.166 338.607 570.159 394.658 524.509 433.504L500.93 392.732C532.173 363.011 549.972 321.653 549.972 278.37C549.972 191.385 479.153 120.641 392.125 120.641H218.196C160.737 120.641 106.544 142.743 65.5846 182.929C47.1154 200.971 32.1223 221.901 21.0659 245.217C11.6009 264.975 5.27696 285.989 2.26157 307.547C0.753881 317.844 0 328.351 0 338.733C0 349.114 0.753881 359.579 2.26157 369.877C5.36072 391.602 11.6847 412.574 21.0659 432.165C32.0804 455.439 47.0316 476.411 65.5008 494.494C89.582 518.02 119.024 535.81 150.853 546.15V667H215.097V556.74C216.144 556.74 217.191 556.74 218.238 556.74H392.167C416.709 556.74 441 553.559 464.411 547.28L473.331 544.894L434.676 477.96L429.734 478.88C417.463 481.183 404.857 482.313 392.209 482.313H218.28C172.673 482.313 130.75 461.383 103.319 424.839C90.3777 407.593 81.6667 388.295 77.4786 367.407C75.5521 357.946 74.5889 348.277 74.5889 338.649C74.5889 329.021 75.5521 319.351 77.4786 309.891C81.6667 289.296 90.5871 269.412 103.319 252.459C127.484 220.31 164.213 199.631 204.125 195.696C208.522 195.236 213.129 195.027 218.28 195.027H392.209C438.194 195.027 475.593 232.408 475.593 278.37C475.593 294.863 470.693 310.896 461.647 324.542L426.174 263.091L422.07 255.933L421.735 255.598C420.897 254.51 419.934 253.421 418.761 252.249C411.725 245.049 402.344 241.115 392.251 241.115H218.322C207.685 241.115 197.173 242.831 187.121 246.221L182.305 247.896V248.021C156.381 258.319 135.692 279.71 126.395 306.081C122.667 316.463 120.825 327.43 120.825 338.607C120.825 349.784 122.709 360.751 126.395 371.09C140.132 409.979 177.07 436.058 218.364 436.058H392.293C394.429 436.058 396.523 436.016 398.617 435.932L410.301 435.429L367.667 361.63H218.406C213.967 361.63 209.653 360.374 205.925 357.988C199.267 353.677 195.33 346.435 195.33 338.565C195.33 334.588 196.335 330.821 198.303 327.305L198.68 326.635C202.868 319.728 210.365 315.458 218.448 315.458H382.451L585.403 666.791H659.573L562.411 498.638C630.424 446.146 670.881 364.225 670.881 278.203L670.671 278.328Z" fill="#1A1C22"/>
<path d="M1361.28 257.638C1337.62 243.74 1309.05 236.791 1275.59 236.791C1242.13 236.791 1213.61 243.824 1189.9 257.889C1166.24 271.954 1148.11 290.539 1135.5 313.688C1122.89 336.837 1116.61 362.455 1116.61 390.585C1116.61 410.26 1120.17 429.097 1127.33 447.138C1134.45 465.138 1144.88 481.045 1158.62 494.775C1172.31 508.505 1188.94 519.389 1208.5 527.385C1228.01 535.338 1250.38 539.356 1275.59 539.356C1298.12 539.356 1318.73 535.882 1337.32 528.933C1355.92 521.985 1372 512.775 1385.53 501.305C1399.05 489.836 1409.57 476.441 1417.1 461.036L1340.46 439.059C1336.32 449.566 1328.36 458.022 1316.51 464.427C1304.66 470.831 1291.8 474.013 1277.89 474.013C1267.38 474.013 1257.2 471.836 1247.45 467.441C1237.69 463.045 1229.61 456.473 1223.2 447.724C1216.79 438.976 1213.23 428.218 1212.48 415.409H1431.18C1431.55 411.683 1432.01 407.329 1432.6 402.348C1433.14 397.367 1433.44 392.26 1433.44 387.027C1433.44 360.697 1427.32 336.042 1415.14 313.018C1402.91 290.037 1384.98 271.577 1361.32 257.638H1361.28ZM1210.8 360.153C1211.93 347.846 1215.32 337.381 1220.94 328.674C1226.59 320.009 1234.09 313.228 1243.47 308.33C1252.85 303.433 1262.98 301.005 1273.92 301.005C1285.93 301.005 1296.45 303.433 1305.49 308.33C1314.5 313.228 1322.04 320.093 1328.02 328.967C1334.01 337.842 1337.62 348.223 1338.75 360.153H1210.8Z" fill="#1A1C22"/>
<path d="M1084.03 356.178C1093.79 344.541 1101.41 331.188 1106.85 316.16C1112.3 301.174 1115.02 285.56 1115.02 269.402C1115.02 253.244 1111.75 235.997 1105.18 219.798C1098.6 203.639 1089.6 189.198 1078.12 176.43C1066.65 163.663 1052.83 153.324 1036.71 145.412C1020.54 137.5 1002.87 133.607 983.727 133.607H803.935V533.581H896.364V404.568H958.934L1035.62 533.581H1137.64L1049.69 384.852C1062.84 377.359 1074.31 367.773 1084.07 356.136L1084.03 356.178ZM1015.26 297.574C1011.49 305.862 1006.68 312.225 1000.9 316.704C995.076 321.225 988.585 323.485 981.465 323.485H896.323V214.774H978.073C984.816 214.774 991.516 217.035 998.092 221.556C1004.67 226.035 1010.11 232.356 1014.43 240.435C1018.74 248.514 1020.87 258.183 1020.87 269.444C1020.87 279.992 1018.99 289.369 1015.26 297.616V297.574Z" fill="#1A1C22"/>
<path d="M1718.43 273.166C1712.24 262.241 1703.19 253.408 1691.38 246.753C1679.57 240.055 1663.86 236.748 1644.31 236.748C1627.39 236.748 1611.6 238.799 1596.94 242.86C1582.32 246.962 1569.34 253.074 1558.07 261.236C1546.81 269.399 1537.39 279.404 1529.89 291.25V241.269H1448.72V533.662H1538.89V366.305C1542.24 356.51 1547.52 347.761 1554.68 340.143C1561.8 332.524 1569.68 326.538 1578.34 322.143C1587.01 317.789 1595.47 315.613 1603.72 315.613C1615.37 315.613 1625.04 319.966 1632.75 328.631C1640.45 337.296 1644.31 351.194 1644.31 370.366V533.621H1734.47V346.799C1734.47 334.575 1733.34 321.975 1731.08 308.957C1728.82 295.98 1724.59 284.05 1718.39 273.083L1718.43 273.166Z" fill="#1A1C22"/>
<path d="M1956.4 418.973C1956.4 418.973 1956.35 419.056 1956.35 419.098C1950.83 429.103 1944.5 437.182 1937.51 443.252C1930.47 449.363 1923.23 453.759 1915.81 456.438C1908.36 459.117 1900.57 460.498 1892.45 460.498C1879.46 460.498 1869.33 455.852 1862.12 446.517C1854.88 437.182 1851.24 423.954 1851.24 406.792V241.276H1762.16V426.675C1762.16 462.256 1770.03 489.34 1785.82 507.842C1797.63 521.74 1813.38 530.405 1833.06 533.879C1839.63 535.051 1846.63 535.637 1854.04 535.637C1862.92 535.637 1871.46 535.051 1879.67 533.879C1894.46 531.828 1908.15 527.935 1920.8 522.158C1934.12 516.047 1945.97 507.675 1956.35 496.958V533.879H2045.52V241.276H1956.44V418.973H1956.4Z" fill="#1A1C22"/>
<path d="M2379.35 233.355H2370.34C2352.67 233.732 2335.75 239.551 2319.63 250.811C2303.46 262.072 2290.14 277.644 2279.59 297.569V241.225H2197.29V533.619H2287.46V356.173C2295.38 342.652 2308.15 332.439 2325.82 325.448C2343.46 318.499 2363.18 315.025 2385 315.025V233.9C2383.12 233.523 2381.23 233.355 2379.39 233.355H2379.35Z" fill="#1A1C22"/>
<path d="M2079.48 241.308H2169.65V533.659H2079.48V241.308ZM2122.87 124.225C2093.77 124.225 2070.19 144.527 2070.19 169.559C2070.19 194.592 2093.77 214.894 2122.87 214.894C2151.98 214.894 2175.56 194.592 2175.56 169.559C2175.56 144.527 2151.98 124.225 2122.87 124.225Z" fill="#1A1C22"/>
</svg>
