<svg width="24" height="24" viewBox="0 0 24 24" fill="none" xmlns="http://www.w3.org/2000/svg">
<path fill-rule="evenodd" clip-rule="evenodd" d="M11.063 2.46913C11.309 2.27238 11.6108 2.15809 11.9254 2.14247C12.2401 2.12685 12.5517 2.2107 12.816 2.38213L12.937 2.46913L17.249 5.91913C17.4594 6.08728 17.6336 6.29618 17.7613 6.53332C17.889 6.77045 17.9675 7.03093 17.992 7.29913L18 7.48013V19.0001H19V10.5001C19 10.3831 19.041 10.2698 19.1159 10.1799C19.1908 10.09 19.2949 10.0292 19.41 10.0081L19.5 10.0001H20C20.5046 9.99997 20.9906 10.1905 21.3605 10.5336C21.7305 10.8767 21.9572 11.347 21.995 11.8501L22 12.0001V19.9001C21.9999 20.171 21.8998 20.4323 21.719 20.634C21.5382 20.8357 21.2893 20.9636 21.02 20.9931L20.9 21.0001H3.1C2.82894 21.0003 2.56738 20.9003 2.36548 20.7195C2.16358 20.5386 2.03557 20.2896 2.006 20.0201L2 19.9001V12.0001C1.99984 11.4956 2.19041 11.0096 2.5335 10.6396C2.87659 10.2696 3.34684 10.043 3.85 10.0051L4 10.0001H4.5C4.61703 10.0001 4.73036 10.0411 4.82026 10.116C4.91016 10.1909 4.97094 10.295 4.992 10.4101L5 10.5001V19.0001H6V7.48013C5.99998 7.21081 6.05436 6.94427 6.15987 6.69648C6.26537 6.44869 6.41984 6.22476 6.614 6.03813L6.751 5.91813L11.063 2.46913ZM12 8.99913C11.4696 8.99913 10.9609 9.20984 10.5858 9.58491C10.2107 9.95999 10 10.4687 10 10.9991C10 11.5296 10.2107 12.0383 10.5858 12.4133C10.9609 12.7884 11.4696 12.9991 12 12.9991C12.5304 12.9991 13.0391 12.7884 13.4142 12.4133C13.7893 12.0383 14 11.5296 14 10.9991C14 10.4687 13.7893 9.95999 13.4142 9.58491C13.0391 9.20984 12.5304 8.99913 12 8.99913Z" fill="white"/>
</svg>
