<svg width="20" height="20" viewBox="0 0 20 20" fill="none" xmlns="http://www.w3.org/2000/svg">
<path d="M7.50008 10.0003L9.16675 11.667L12.9167 7.91699M7.66833 17.1677C7.94146 17.1316 8.21736 17.2057 8.43493 17.3733L9.43763 18.1427C9.76908 18.3973 10.2302 18.3973 10.5607 18.1427L11.6013 17.3436C11.7958 17.1946 12.0411 17.1288 12.2837 17.1612L13.5854 17.3325C13.9993 17.3872 14.3983 17.1566 14.5585 16.7705L15.0594 15.5594C15.1529 15.3326 15.3325 15.153 15.5593 15.0594L16.7704 14.5585C17.1564 14.3993 17.387 13.9993 17.3323 13.5854L17.1675 12.3308C17.1314 12.0577 17.2055 11.7818 17.3731 11.5642L18.1425 10.5614C18.3971 10.2299 18.3971 9.76885 18.1425 9.4383L17.3434 8.39759C17.1944 8.20315 17.1287 7.95779 17.1611 7.7152L17.3323 6.41339C17.387 5.99951 17.1564 5.60045 16.7704 5.44027L15.5593 4.93935C15.3325 4.84584 15.1529 4.66621 15.0594 4.43937L14.5585 3.22829C14.3993 2.84219 13.9993 2.61164 13.5854 2.66627L12.2837 2.83756C12.0411 2.87089 11.7958 2.80515 11.6023 2.65701L10.5616 1.85796C10.2302 1.60334 9.76908 1.60334 9.43855 1.85796L8.3979 2.65701C8.20347 2.80515 7.95812 2.87089 7.71555 2.83941L6.41381 2.66812C5.99995 2.61349 5.60091 2.84404 5.44074 3.23014L4.94078 4.44122C4.84634 4.66714 4.66673 4.84676 4.44082 4.94121L3.22981 5.44119C2.84373 5.60137 2.6132 6.00044 2.66782 6.41431L2.8391 7.71613C2.87058 7.95872 2.80485 8.20408 2.65671 8.39759L1.8577 9.4383C1.6031 9.76978 1.6031 10.2309 1.8577 10.5614L2.65671 11.6021C2.80577 11.7966 2.87151 12.0419 2.8391 12.2845L2.66782 13.5863C2.6132 14.0002 2.84373 14.3993 3.22981 14.5595L4.44082 15.0604C4.66766 15.1539 4.84727 15.3335 4.94078 15.5604L5.44167 16.7714C5.60091 17.1575 6.00088 17.3881 6.41473 17.3335L7.66833 17.1677Z" stroke="white" stroke-width="2" stroke-linecap="round" stroke-linejoin="round"/>
</svg>
