<svg width="32" height="30" viewBox="0 0 32 30" fill="none" xmlns="http://www.w3.org/2000/svg">
<path d="M16 24.6923V29M16 11.7692V16.0769M16 1V3.15385M26.7143 11.7692H5.72969C5.5889 11.7693 5.44948 11.7414 5.31941 11.6872C5.18935 11.6331 5.07117 11.5537 4.97165 11.4536L1 7.46154L4.97165 3.46952C5.07117 3.36942 5.18935 3.29002 5.31941 3.23586C5.44948 3.18169 5.5889 3.15382 5.72969 3.15385H26.7143C26.9984 3.15385 27.271 3.26731 27.4719 3.46927C27.6728 3.67123 27.7857 3.94515 27.7857 4.23077V10.6923C27.7857 10.9779 27.6728 11.2518 27.4719 11.4538C27.271 11.6558 26.9984 11.7692 26.7143 11.7692ZM5.28571 24.6923H26.2703C26.4111 24.6923 26.5505 24.6645 26.6806 24.6103C26.8107 24.5561 26.9288 24.4767 27.0283 24.3766L31 20.3846L27.0283 16.3926C26.9288 16.2925 26.8107 16.2131 26.6806 16.1589C26.5505 16.1048 26.4111 16.0769 26.2703 16.0769H5.28571C5.00155 16.0769 4.72903 16.1904 4.5281 16.3923C4.32717 16.5943 4.21429 16.8682 4.21429 17.1538V23.6154C4.21429 23.901 4.32717 24.1749 4.5281 24.3769C4.72903 24.5788 5.00155 24.6923 5.28571 24.6923Z" stroke="#487818" stroke-width="2" stroke-linecap="round" stroke-linejoin="round"/>
</svg>
